# xmcd
#
# Track frame offsets:
#	150
#	48249
#	108099
#	154149
#	199120
#	237531
#
# Disc length: 3846 seconds
# Revision: 0
# Processed by: cddbd v1.5.2PL0 Copyright (c) Steve Scherf et al.
# Submitted via: dBpowerAMP V12.0
#
DISCID=470f0406
DTITLE=Larry Crane - The Goals and Resistance Course Week 4 CD 02
DYEAR=1998
DGENRE=Speech
TTITLE0=The Goals and Resistance Course Week 4 pt 7
TTITLE1=The Goals and Resistance Course Week 4 pt 8
TTITLE2=The Goals and Resistance Course Week 4 pt 9
TTITLE3=The Goals and Resistance Course Week 4 pt 10
TTITLE4=The Goals and Resistance Course Week 4 pt 11
TTITLE5=The Goals and Resistance Course Week 4 pt 12
EXTD=
EXTT0=
EXTT1=
EXTT2=
EXTT3=
EXTT4=
EXTT5=
PLAYORDER=
